<svg width="1311" height="432" viewBox="0 0 1311 432" fill="none" xmlns="http://www.w3.org/2000/svg">
<g clip-path="url(#clip0_138_172)">
<rect x="1026.35" y="357" width="48" height="70" rx="12" transform="rotate(55.008 1026.35 357)" fill="#3242CD"/>
<rect x="1150.19" y="193" width="167" height="212" rx="12" transform="rotate(11.8316 1150.19 193)" fill="#FFD505"/>
<rect x="1048.06" y="259" width="66" height="293" rx="12" transform="rotate(72.2574 1048.06 259)" fill="#EA4A4A"/>
<rect x="1255" y="336" width="51" height="96" rx="12" fill="#EA4A4A"/>
<rect x="988.159" y="159.106" width="57" height="279" rx="11" transform="rotate(-10.0499 988.159 159.106)" stroke="#FFD505" stroke-width="2"/>
<path fill-rule="evenodd" clip-rule="evenodd" d="M1066.92 399.619C1066.68 397.423 1068.27 395.473 1070.42 394.963C1084.62 391.597 1094.78 378.938 1095 364.347C1095.03 362.138 1096.59 360.157 1098.79 359.916V359.916C1100.98 359.676 1102.93 361.273 1103.44 363.423C1106.81 377.622 1119.47 387.783 1134.06 387.999C1136.27 388.032 1138.25 389.59 1138.49 391.786V391.786C1138.73 393.982 1137.13 395.932 1134.98 396.442C1120.78 399.809 1110.62 412.467 1110.41 427.059C1110.37 429.268 1108.82 431.249 1106.62 431.489V431.489C1104.42 431.729 1102.47 430.132 1101.96 427.983C1098.6 413.783 1085.94 403.622 1071.35 403.406C1069.14 403.373 1067.16 401.815 1066.92 399.619V399.619Z" fill="#9FD330"/>
<mask id="path-7-inside-1_138_172" fill="white">
<path fill-rule="evenodd" clip-rule="evenodd" d="M1127.92 338.619C1127.68 336.423 1129.27 334.473 1131.42 333.963C1145.62 330.597 1155.78 317.938 1156 303.347C1156.03 301.138 1157.59 299.157 1159.79 298.916V298.916C1161.98 298.676 1163.93 300.273 1164.44 302.423C1167.81 316.622 1180.47 326.783 1195.06 326.999C1197.27 327.032 1199.25 328.59 1199.49 330.786V330.786C1199.73 332.982 1198.13 334.932 1195.98 335.442C1181.78 338.809 1171.62 351.467 1171.41 366.059C1171.37 368.268 1169.82 370.249 1167.62 370.489V370.489C1165.42 370.729 1163.47 369.132 1162.96 366.983C1159.6 352.783 1146.94 342.622 1132.35 342.406C1130.14 342.373 1128.16 340.815 1127.92 338.619V338.619Z"/>
</mask>
<path d="M1132.35 342.406L1132.38 340.406L1132.35 342.406ZM1195.98 335.442L1195.52 333.496L1195.98 335.442ZM1195.06 326.999L1195.03 328.999L1195.06 326.999ZM1164.44 302.423L1162.5 302.884L1164.44 302.423ZM1156 303.347L1154 303.317L1156 303.347ZM1154 303.317C1153.8 316.993 1144.27 328.862 1130.96 332.017L1131.88 335.909C1146.97 332.331 1157.77 318.883 1158 303.376L1154 303.317ZM1195.09 324.999C1181.41 324.797 1169.54 315.269 1166.39 301.961L1162.5 302.884C1166.07 317.974 1179.52 328.769 1195.03 328.999L1195.09 324.999ZM1173.41 366.088C1173.61 352.413 1183.14 340.543 1196.44 337.388L1195.52 333.496C1180.43 337.074 1169.64 350.522 1169.41 366.029L1173.41 366.088ZM1132.32 344.406C1145.99 344.608 1157.86 354.136 1161.02 367.444L1164.91 366.521C1161.33 351.431 1147.88 340.636 1132.38 340.406L1132.32 344.406ZM1132.38 340.406C1131.02 340.386 1130.02 339.445 1129.9 338.402L1125.93 338.837C1126.29 342.185 1129.26 344.361 1132.32 344.406L1132.38 340.406ZM1167.4 368.501C1166.36 368.615 1165.22 367.842 1164.91 366.521L1161.02 367.444C1161.72 370.422 1164.49 372.844 1167.84 372.477L1167.4 368.501ZM1169.41 366.029C1169.39 367.387 1168.45 368.387 1167.4 368.501L1167.84 372.477C1171.19 372.111 1173.36 369.148 1173.41 366.088L1169.41 366.029ZM1197.5 331.004C1197.62 332.047 1196.84 333.183 1195.52 333.496L1196.44 337.388C1199.42 336.682 1201.84 333.917 1201.48 330.569L1197.5 331.004ZM1195.03 328.999C1196.39 329.019 1197.39 329.96 1197.5 331.004L1201.48 330.569C1201.11 327.22 1198.15 325.045 1195.09 324.999L1195.03 328.999ZM1160 300.904C1161.05 300.79 1162.18 301.563 1162.5 302.884L1166.39 301.961C1165.68 298.984 1162.92 296.562 1159.57 296.928L1160 300.904ZM1130.96 332.017C1127.98 332.723 1125.56 335.488 1125.93 338.837L1129.9 338.402C1129.79 337.358 1130.56 336.223 1131.88 335.909L1130.96 332.017ZM1158 303.376C1158.02 302.018 1158.96 301.019 1160 300.904L1159.57 296.928C1156.22 297.295 1154.04 300.257 1154 303.317L1158 303.376Z" fill="#EA4A4A" mask="url(#path-7-inside-1_138_172)"/>
<circle cx="863.5" cy="400.5" r="31.5" fill="#262626"/>
<circle cx="174.5" cy="303.5" r="31.5" fill="#FFD505"/>
<path fill-rule="evenodd" clip-rule="evenodd" d="M1146.96 179.457C1161.95 170.091 1166.5 150.348 1157.14 135.361L1163.92 131.121C1173.29 146.108 1193.03 150.664 1208.02 141.297L1212.26 148.081C1197.27 157.448 1192.71 177.19 1202.08 192.177L1195.3 196.417C1185.93 181.43 1166.19 176.874 1151.2 186.241L1146.96 179.457Z" fill="#A0D330"/>
<path fill-rule="evenodd" clip-rule="evenodd" d="M1185.12 240.513C1200.11 231.146 1204.66 211.403 1195.3 196.417L1202.08 192.177C1211.45 207.163 1231.19 211.719 1246.18 202.352L1250.42 209.136C1235.43 218.503 1230.87 238.245 1240.24 253.232L1233.46 257.472C1224.09 242.485 1204.35 237.93 1189.36 247.297L1185.12 240.513Z" fill="#3242CD"/>
<path fill-rule="evenodd" clip-rule="evenodd" d="M1246.18 202.352C1261.16 192.985 1265.72 173.243 1256.35 158.256L1263.14 154.016C1272.5 169.002 1292.24 173.558 1307.23 164.191L1311.47 170.975C1296.48 180.342 1291.93 200.085 1301.3 215.071L1294.51 219.311C1285.15 204.325 1265.4 199.769 1250.42 209.136L1246.18 202.352Z" fill="#262626"/>
<path fill-rule="evenodd" clip-rule="evenodd" d="M1208.02 141.297C1223 131.93 1227.56 112.187 1218.19 97.2005L1224.98 92.9604C1234.34 107.947 1254.08 112.503 1269.07 103.136L1273.31 109.92C1258.32 119.287 1253.77 139.029 1263.14 154.016L1256.35 158.256C1246.99 143.269 1227.24 138.714 1212.26 148.08L1208.02 141.297Z" fill="#EA4A4A"/>
<rect y="300.034" width="167" height="133" rx="12" transform="rotate(-3.78842 0 300.034)" fill="#9FD330"/>
<rect x="89" y="230.538" width="9" height="220" rx="4.5" transform="rotate(-23.1477 89 230.538)" fill="#EA4A4A"/>
<mask id="path-17-inside-2_138_172" fill="white">
<path fill-rule="evenodd" clip-rule="evenodd" d="M22.6434 294.699C22.9284 292.509 24.9408 290.991 27.1499 291.003C41.7427 291.084 54.6053 281.182 58.2603 267.055C58.8136 264.916 60.7957 263.359 62.9864 263.644V263.644C65.177 263.929 66.6948 265.941 66.6825 268.15C66.6016 282.743 76.5032 295.606 90.631 299.261C92.7697 299.814 94.3269 301.796 94.0419 303.987V303.987C93.757 306.177 91.7446 307.695 89.5355 307.683C74.9427 307.602 62.0801 317.503 58.4251 331.631C57.8718 333.77 55.8897 335.327 53.699 335.042V335.042C51.5083 334.757 49.9906 332.745 50.0029 330.536C50.0837 315.943 40.1822 303.08 26.0544 299.425C23.9157 298.872 22.3585 296.89 22.6434 294.699V294.699Z"/>
</mask>
<path d="M58.4251 331.631L56.4888 331.13L58.4251 331.631ZM27.1499 291.003L27.161 289.003L27.1499 291.003ZM58.2603 267.055L56.3241 266.554L58.2603 267.055ZM56.3241 266.554C52.8984 279.795 40.838 289.079 27.161 289.003L27.1388 293.003C42.6473 293.089 56.3122 282.57 60.1966 267.556L56.3241 266.554ZM91.1319 297.324C77.8907 293.899 68.6067 281.838 68.6825 268.161L64.6826 268.139C64.5966 283.648 75.1157 297.312 90.1301 301.197L91.1319 297.324ZM60.3613 332.132C63.787 318.891 75.8474 309.607 89.5244 309.683L89.5465 305.683C74.0381 305.597 60.3732 316.116 56.4888 331.13L60.3613 332.132ZM25.5534 301.362C38.7947 304.787 48.0787 316.848 48.0029 330.525L52.0028 330.547C52.0888 315.038 41.5697 301.373 26.5553 297.489L25.5534 301.362ZM26.5553 297.489C25.2406 297.149 24.4913 295.998 24.6267 294.957L20.6602 294.441C20.2256 297.782 22.5907 300.595 25.5534 301.362L26.5553 297.489ZM53.957 333.059C52.916 332.923 51.9953 331.905 52.0028 330.547L48.0029 330.525C47.9859 333.585 50.1007 336.591 53.441 337.025L53.957 333.059ZM56.4888 331.13C56.1487 332.445 54.998 333.194 53.957 333.059L53.441 337.025C56.7814 337.46 59.5948 335.095 60.3613 332.132L56.4888 331.13ZM92.0586 303.729C91.9232 304.77 90.9045 305.69 89.5465 305.683L89.5244 309.683C92.5847 309.7 95.5907 307.585 96.0252 304.245L92.0586 303.729ZM90.1301 301.197C91.4447 301.537 92.1941 302.688 92.0586 303.729L96.0252 304.245C96.4597 300.904 94.0947 298.091 91.1319 297.324L90.1301 301.197ZM62.7284 265.627C63.7694 265.762 64.6901 266.781 64.6826 268.139L68.6825 268.161C68.6995 265.101 66.5847 262.095 63.2443 261.66L62.7284 265.627ZM27.161 289.003C24.1007 288.986 21.0947 291.101 20.6602 294.441L24.6267 294.957C24.7621 293.916 25.7809 292.996 27.1388 293.003L27.161 289.003ZM60.1966 267.556C60.5367 266.241 61.6874 265.492 62.7284 265.627L63.2443 261.66C59.904 261.226 57.0906 263.591 56.3241 266.554L60.1966 267.556Z" fill="#3242CD" mask="url(#path-17-inside-2_138_172)"/>
<path d="M1137.04 218.487L1170.05 268.295C1174.73 275.353 1170.01 284.829 1161.56 285.351L1101.92 289.039C1093.47 289.561 1087.62 280.739 1091.39 273.158L1118.02 219.663C1121.8 212.082 1132.36 211.429 1137.04 218.487Z" stroke="#3242CD" stroke-width="2"/>
</g>
<defs>
<clipPath id="clip0_138_172">
<rect width="1311" height="432" fill="white"/>
</clipPath>
</defs>
</svg>
